<svg id="Layer_1" data-name="Layer 1" xmlns="http://www.w3.org/2000/svg" viewBox="0 0 128 128"><defs><style>.cls-1,.cls-48,.cls-69,.cls-82{font-size:3px;font-family:MyriadPro-Regular, Myriad Pro;}.cls-1,.cls-100,.cls-101,.cls-102,.cls-103,.cls-49,.cls-52,.cls-53,.cls-54,.cls-55,.cls-56,.cls-57,.cls-58,.cls-59,.cls-60,.cls-61,.cls-62,.cls-63,.cls-64,.cls-65,.cls-66,.cls-67,.cls-83,.cls-84,.cls-85,.cls-86,.cls-97,.cls-98,.cls-99{fill:#7ce55a;}.cls-101,.cls-2{letter-spacing:-0.01em;}.cls-3{letter-spacing:0.03em;}.cls-4,.cls-49,.cls-51{letter-spacing:0em;}.cls-5,.cls-50{letter-spacing:-0.01em;}.cls-6{letter-spacing:0em;}.cls-100,.cls-7{letter-spacing:0.01em;}.cls-8{letter-spacing:0.02em;}.cls-9{letter-spacing:-0.09em;}.cls-10,.cls-103{letter-spacing:-0.08em;}.cls-11,.cls-87{letter-spacing:0em;}.cls-12,.cls-88{letter-spacing:-0.01em;}.cls-13{letter-spacing:0.02em;}.cls-14,.cls-59{letter-spacing:0em;}.cls-15{letter-spacing:-0.02em;}.cls-104,.cls-16,.cls-86{letter-spacing:-0.09em;}.cls-17{letter-spacing:-0.13em;}.cls-18,.cls-63,.cls-92{letter-spacing:0em;}.cls-19{letter-spacing:0.02em;}.cls-20,.cls-68{letter-spacing:0em;}.cls-21{letter-spacing:-0.03em;}.cls-22{letter-spacing:-0.02em;}.cls-23,.cls-66{letter-spacing:-0.09em;}.cls-24,.cls-67{letter-spacing:0em;}.cls-25{letter-spacing:0.02em;}.cls-26{letter-spacing:-0.01em;}.cls-27{letter-spacing:-0.03em;}.cls-28,.cls-58{letter-spacing:-0.01em;}.cls-29,.cls-64{letter-spacing:-0.01em;}.cls-30{letter-spacing:-0.01em;}.cls-31,.cls-65{letter-spacing:0.03em;}.cls-32{letter-spacing:0.01em;}.cls-33{letter-spacing:0em;}.cls-34,.cls-55{letter-spacing:-0.01em;}.cls-35,.cls-84{letter-spacing:-0.01em;}.cls-104,.cls-36,.cls-50,.cls-51,.cls-68,.cls-73,.cls-81,.cls-87,.cls-88,.cls-89,.cls-91,.cls-92,.cls-94,.cls-96{fill:#fff;}.cls-37,.cls-89{letter-spacing:-0.01em;}.cls-38,.cls-52{letter-spacing:-0.08em;}.cls-39{letter-spacing:-0.13em;}.cls-40{letter-spacing:-0.01em;}.cls-41{letter-spacing:0.01em;}.cls-42,.cls-61,.cls-94{letter-spacing:0em;}.cls-43{letter-spacing:-0.03em;}.cls-44{letter-spacing:0.01em;}.cls-45{letter-spacing:0.02em;}.cls-46{letter-spacing:-0.01em;}.cls-47,.cls-91,.cls-97{letter-spacing:0em;}.cls-48{fill:#00a99d;}.cls-53{letter-spacing:0em;}.cls-54{letter-spacing:0.01em;}.cls-57,.cls-95{letter-spacing:0em;}.cls-60{letter-spacing:0.01em;}.cls-62{letter-spacing:0em;}.cls-69,.cls-71{fill:#999;}.cls-70{letter-spacing:0.02em;}.cls-71,.cls-72,.cls-73,.cls-74{stroke:#4d4d4d;}.cls-71,.cls-72,.cls-73,.cls-74,.cls-77,.cls-78,.cls-79{stroke-miterlimit:10;}.cls-72{fill:#4d4d4d;}.cls-74{fill:#b3b3b3;}.cls-75{fill:#1d1e1e;}.cls-76{fill:#b4dd0b;}.cls-77,.cls-78,.cls-79{fill:none;}.cls-77,.cls-78{stroke:#b4dd0b;}.cls-77{stroke-width:0.5px;}.cls-78{stroke-width:0.75px;}.cls-79{stroke:#3eb7ed;stroke-width:2px;}.cls-80{fill:#3eb7ed;}.cls-81{opacity:0.19;}.cls-83,.cls-96{letter-spacing:-0.03em;}.cls-85{letter-spacing:0.03em;}.cls-90{letter-spacing:-0.07em;}.cls-93{letter-spacing:-0.01em;}.cls-98{letter-spacing:-0.05em;}.cls-99{letter-spacing:0em;}.cls-102{letter-spacing:0.01em;}</style></defs><title>kl dedug icon</title><rect width="128" height="128"/><text class="cls-1" transform="translate(13.1 53.54)">.<tspan class="cls-2" x="0.62" y="0">t</tspan><tspan x="1.6" y="0">oggl</tspan><tspan class="cls-3" x="7.3" y="0">e</tspan><tspan class="cls-4" x="8.89" y="0">-</tspan><tspan class="cls-5" x="9.81" y="0">t</tspan><tspan class="cls-6" x="10.79" y="0">e</tspan><tspan class="cls-7" x="12.28" y="0">x</tspan><tspan class="cls-8" x="13.71" y="0">t</tspan><tspan class="cls-9" x="14.77" y="0">’</tspan><tspan x="15.13" y="0" xml:space="preserve"> ,</tspan><tspan class="cls-10" x="16.39" y="0"> </tspan><tspan class="cls-11" x="16.77" y="0">‘</tspan><tspan x="17.41" y="0">widget . pos</tspan><tspan class="cls-12" x="32.62" y="0">t</tspan><tspan class="cls-13" x="33.59" y="0">-</tspan><tspan x="34.57" y="0">d</tspan><tspan class="cls-14" x="36.26" y="0">a</tspan><tspan class="cls-5" x="37.69" y="0">t</tspan><tspan class="cls-15" x="38.67" y="0">e</tspan><tspan class="cls-16" x="40.1" y="0">’</tspan><tspan class="cls-4" x="40.46" y="0" xml:space="preserve"> ,</tspan><tspan class="cls-10" x="41.72" y="0"> </tspan><tspan class="cls-17" x="42.1" y="0">‘</tspan><tspan x="42.35" y="0">.widget . pos</tspan><tspan class="cls-18" x="58.18" y="0">t</tspan><tspan class="cls-19" x="59.16" y="0">-</tspan><tspan x="60.13" y="0">d</tspan><tspan class="cls-20" x="61.83" y="0">at</tspan><tspan class="cls-21" x="64.23" y="0">e</tspan><tspan class="cls-9" x="65.66" y="0">’</tspan><tspan x="66.03" y="0" xml:space="preserve"> ,</tspan><tspan class="cls-10" x="67.28" y="0"> </tspan><tspan class="cls-17" x="67.67" y="0">‘</tspan><tspan x="67.92" y="0">.widget .rss d</tspan><tspan class="cls-20" x="84.25" y="0">a</tspan><tspan class="cls-5" x="85.69" y="0">t</tspan><tspan class="cls-22" x="86.66" y="0">e</tspan><tspan class="cls-23" x="88.09" y="0">’</tspan><tspan class="cls-24" x="88.45" y="0" xml:space="preserve"> , .e</tspan><tspan class="cls-20" x="92.47" y="0">n</tspan><tspan x="94.12" y="0">t</tspan><tspan class="cls-25" x="95.12" y="0">r</tspan><tspan class="cls-14" x="96.17" y="0">y</tspan><tspan x="97.57" y="0">-headion</tspan></text><text class="cls-1" transform="translate(13.1 59.3)">.<tspan class="cls-2" x="0.62" y="0">t</tspan><tspan x="1.6" y="0">oggl</tspan><tspan class="cls-3" x="7.3" y="0">e</tspan><tspan class="cls-4" x="8.89" y="0">-</tspan><tspan class="cls-5" x="9.81" y="0">t</tspan><tspan class="cls-6" x="10.79" y="0">e</tspan><tspan class="cls-7" x="12.28" y="0">x</tspan><tspan class="cls-8" x="13.71" y="0">t</tspan><tspan class="cls-9" x="14.77" y="0">’</tspan><tspan x="15.13" y="0" xml:space="preserve"> ,</tspan><tspan class="cls-10" x="16.39" y="0"> </tspan><tspan class="cls-11" x="16.77" y="0">‘</tspan><tspan x="17.41" y="0">widget . pos</tspan><tspan class="cls-12" x="32.62" y="0">t</tspan><tspan class="cls-13" x="33.59" y="0">-</tspan><tspan x="34.57" y="0">d</tspan><tspan class="cls-14" x="36.26" y="0">a</tspan><tspan class="cls-5" x="37.69" y="0">t</tspan><tspan class="cls-15" x="38.67" y="0">e</tspan><tspan class="cls-16" x="40.1" y="0">’</tspan><tspan class="cls-4" x="40.46" y="0" xml:space="preserve"> ,</tspan><tspan class="cls-10" x="41.72" y="0"> </tspan><tspan class="cls-17" x="42.1" y="0">‘</tspan><tspan x="42.35" y="0">.widget . pos</tspan><tspan class="cls-18" x="58.18" y="0">t</tspan><tspan class="cls-19" x="59.16" y="0">-</tspan><tspan x="60.13" y="0">d</tspan><tspan class="cls-20" x="61.83" y="0">at</tspan><tspan class="cls-21" x="64.23" y="0">e</tspan><tspan class="cls-9" x="65.66" y="0">’</tspan><tspan x="66.03" y="0" xml:space="preserve"> ,</tspan><tspan class="cls-10" x="67.28" y="0"> </tspan><tspan class="cls-17" x="67.67" y="0">‘</tspan><tspan x="67.92" y="0">.widget .rss d</tspan><tspan class="cls-20" x="84.25" y="0">a</tspan><tspan class="cls-5" x="85.69" y="0">t</tspan><tspan class="cls-22" x="86.66" y="0">e</tspan><tspan class="cls-23" x="88.09" y="0">’</tspan><tspan class="cls-24" x="88.45" y="0" xml:space="preserve"> , .e</tspan><tspan class="cls-20" x="92.47" y="0">n</tspan><tspan x="94.12" y="0">t</tspan><tspan class="cls-25" x="95.12" y="0">r</tspan><tspan class="cls-14" x="96.17" y="0">y</tspan><tspan x="97.57" y="0">-head--inner</tspan></text><text class="cls-1" transform="translate(13.1 65.07)">.<tspan class="cls-2" x="0.62" y="0">t</tspan><tspan x="1.6" y="0">oggl</tspan><tspan class="cls-3" x="7.3" y="0">e</tspan><tspan class="cls-4" x="8.89" y="0">-</tspan><tspan class="cls-5" x="9.81" y="0">t</tspan><tspan class="cls-6" x="10.79" y="0">e</tspan><tspan class="cls-7" x="12.28" y="0">x</tspan><tspan class="cls-8" x="13.71" y="0">t</tspan><tspan class="cls-9" x="14.77" y="0">’</tspan><tspan x="15.13" y="0" xml:space="preserve"> ,</tspan><tspan class="cls-10" x="16.39" y="0"> </tspan><tspan class="cls-11" x="16.77" y="0">‘</tspan><tspan x="17.41" y="0">widget . pos</tspan><tspan class="cls-12" x="32.62" y="0">t</tspan><tspan class="cls-13" x="33.59" y="0">-</tspan><tspan x="34.57" y="0">d</tspan><tspan class="cls-14" x="36.26" y="0">a</tspan><tspan class="cls-5" x="37.69" y="0">t</tspan><tspan class="cls-15" x="38.67" y="0">e</tspan><tspan class="cls-16" x="40.1" y="0">’</tspan><tspan class="cls-4" x="40.46" y="0" xml:space="preserve"> ,</tspan><tspan class="cls-10" x="41.72" y="0"> </tspan><tspan class="cls-17" x="42.1" y="0">‘</tspan><tspan x="42.35" y="0">.widget . pos</tspan><tspan class="cls-18" x="58.18" y="0">t</tspan><tspan class="cls-19" x="59.16" y="0">-</tspan><tspan x="60.13" y="0">d</tspan><tspan class="cls-20" x="61.83" y="0">at</tspan><tspan class="cls-21" x="64.23" y="0">e</tspan><tspan class="cls-9" x="65.66" y="0">’</tspan><tspan x="66.03" y="0" xml:space="preserve"> ,</tspan><tspan class="cls-10" x="67.28" y="0"> </tspan><tspan class="cls-17" x="67.67" y="0">‘</tspan><tspan x="67.92" y="0">.widget .rss d</tspan><tspan class="cls-20" x="84.25" y="0">a</tspan><tspan class="cls-5" x="85.69" y="0">t</tspan><tspan class="cls-22" x="86.66" y="0">e</tspan><tspan class="cls-23" x="88.09" y="0">’</tspan><tspan class="cls-24" x="88.45" y="0" xml:space="preserve"> , .e</tspan><tspan class="cls-20" x="92.47" y="0">n</tspan><tspan x="94.12" y="0">t</tspan><tspan class="cls-25" x="95.12" y="0">r</tspan><tspan class="cls-14" x="96.17" y="0">y</tspan><tspan x="97.57" y="0">-head-ble</tspan></text><text class="cls-1" transform="translate(13.1 70.83)">.<tspan class="cls-2" x="0.62" y="0">t</tspan><tspan x="1.6" y="0">oggl</tspan><tspan class="cls-3" x="7.3" y="0">e</tspan><tspan class="cls-4" x="8.89" y="0">-</tspan><tspan class="cls-5" x="9.81" y="0">t</tspan><tspan class="cls-6" x="10.79" y="0">e</tspan><tspan class="cls-7" x="12.28" y="0">x</tspan><tspan class="cls-8" x="13.71" y="0">t</tspan><tspan class="cls-9" x="14.77" y="0">’</tspan><tspan x="15.13" y="0" xml:space="preserve"> ,</tspan><tspan class="cls-10" x="16.39" y="0"> </tspan><tspan class="cls-11" x="16.77" y="0">‘</tspan><tspan x="17.41" y="0">widget . pos</tspan><tspan class="cls-12" x="32.62" y="0">t</tspan><tspan class="cls-13" x="33.59" y="0">-</tspan><tspan x="34.57" y="0">d</tspan><tspan class="cls-14" x="36.26" y="0">a</tspan><tspan class="cls-5" x="37.69" y="0">t</tspan><tspan class="cls-15" x="38.67" y="0">e</tspan><tspan class="cls-16" x="40.1" y="0">’</tspan><tspan class="cls-4" x="40.46" y="0" xml:space="preserve"> ,</tspan><tspan class="cls-10" x="41.72" y="0"> </tspan><tspan class="cls-17" x="42.1" y="0">‘</tspan><tspan x="42.35" y="0">.widget . pos</tspan><tspan class="cls-18" x="58.18" y="0">t</tspan><tspan class="cls-19" x="59.16" y="0">-</tspan><tspan x="60.13" y="0">d</tspan><tspan class="cls-20" x="61.83" y="0">at</tspan><tspan class="cls-21" x="64.23" y="0">e</tspan><tspan class="cls-9" x="65.66" y="0">’</tspan><tspan x="66.03" y="0" xml:space="preserve"> ,</tspan><tspan class="cls-10" x="67.28" y="0"> </tspan><tspan class="cls-17" x="67.67" y="0">‘</tspan><tspan x="67.92" y="0">.widget .rss d</tspan><tspan class="cls-20" x="84.25" y="0">a</tspan><tspan class="cls-5" x="85.69" y="0">t</tspan><tspan class="cls-22" x="86.66" y="0">e</tspan><tspan class="cls-23" x="88.09" y="0">’</tspan><tspan class="cls-24" x="88.45" y="0" xml:space="preserve"> , .e</tspan><tspan class="cls-20" x="92.47" y="0">n</tspan><tspan x="94.12" y="0">t</tspan><tspan class="cls-25" x="95.12" y="0">r</tspan><tspan class="cls-14" x="96.17" y="0">y</tspan><tspan x="97.57" y="0">-head- p</tspan><tspan class="cls-26" x="108.06" y="0">r</tspan><tspan x="109.01" y="0">e</tspan></text><text class="cls-1" transform="translate(13.1 76.6)">.<tspan class="cls-2" x="0.62" y="0">t</tspan><tspan x="1.6" y="0">oggl</tspan><tspan class="cls-3" x="7.3" y="0">e</tspan><tspan class="cls-4" x="8.89" y="0">-</tspan><tspan class="cls-5" x="9.81" y="0">t</tspan><tspan class="cls-6" x="10.79" y="0">e</tspan><tspan class="cls-7" x="12.28" y="0">x</tspan><tspan class="cls-8" x="13.71" y="0">t</tspan><tspan class="cls-9" x="14.77" y="0">’</tspan><tspan x="15.13" y="0" xml:space="preserve"> ,</tspan><tspan class="cls-10" x="16.39" y="0"> </tspan><tspan class="cls-11" x="16.77" y="0">‘</tspan><tspan x="17.41" y="0">widget . pos</tspan><tspan class="cls-12" x="32.62" y="0">t</tspan><tspan class="cls-13" x="33.59" y="0">-</tspan><tspan x="34.57" y="0">d</tspan><tspan class="cls-14" x="36.26" y="0">a</tspan><tspan class="cls-5" x="37.69" y="0">t</tspan><tspan class="cls-15" x="38.67" y="0">e</tspan><tspan class="cls-16" x="40.1" y="0">’</tspan><tspan class="cls-4" x="40.46" y="0" xml:space="preserve"> ,</tspan><tspan class="cls-10" x="41.72" y="0"> </tspan><tspan class="cls-17" x="42.1" y="0">‘</tspan><tspan x="42.35" y="0">.widget . pos</tspan><tspan class="cls-18" x="58.18" y="0">t</tspan><tspan class="cls-19" x="59.16" y="0">-</tspan><tspan x="60.13" y="0">d</tspan><tspan class="cls-20" x="61.83" y="0">at</tspan><tspan class="cls-21" x="64.23" y="0">e</tspan><tspan class="cls-9" x="65.66" y="0">’</tspan><tspan x="66.03" y="0" xml:space="preserve"> ,</tspan><tspan class="cls-10" x="67.28" y="0"> </tspan><tspan class="cls-17" x="67.67" y="0">‘</tspan><tspan x="67.92" y="0">.widget .rss d</tspan><tspan class="cls-20" x="84.25" y="0">a</tspan><tspan class="cls-5" x="85.69" y="0">t</tspan><tspan class="cls-22" x="86.66" y="0">e</tspan><tspan class="cls-23" x="88.09" y="0">’</tspan><tspan class="cls-24" x="88.45" y="0" xml:space="preserve"> , .e</tspan><tspan class="cls-20" x="92.47" y="0">n</tspan><tspan x="94.12" y="0">t</tspan><tspan class="cls-25" x="95.12" y="0">r</tspan><tspan class="cls-14" x="96.17" y="0">y</tspan><tspan x="97.57" y="0">-head-meta </tspan><tspan class="cls-27" x="112.8" y="0">a</tspan><tspan class="cls-23" x="114.15" y="0">’</tspan></text><text class="cls-1" transform="translate(13.1 82.37)">.<tspan class="cls-2" x="0.62" y="0">t</tspan><tspan x="1.6" y="0">oggl</tspan><tspan class="cls-3" x="7.3" y="0">e</tspan><tspan class="cls-4" x="8.89" y="0">-</tspan><tspan class="cls-5" x="9.81" y="0">t</tspan><tspan class="cls-6" x="10.79" y="0">e</tspan><tspan class="cls-7" x="12.28" y="0">x</tspan><tspan class="cls-8" x="13.71" y="0">t</tspan><tspan class="cls-9" x="14.77" y="0">’</tspan><tspan x="15.13" y="0" xml:space="preserve"> ,</tspan><tspan class="cls-10" x="16.39" y="0"> </tspan><tspan class="cls-11" x="16.77" y="0">‘</tspan><tspan x="17.41" y="0">widget . pos</tspan><tspan class="cls-12" x="32.62" y="0">t</tspan><tspan class="cls-13" x="33.59" y="0">-</tspan><tspan x="34.57" y="0">d</tspan><tspan class="cls-14" x="36.26" y="0">a</tspan><tspan class="cls-5" x="37.69" y="0">t</tspan><tspan class="cls-15" x="38.67" y="0">e</tspan><tspan class="cls-16" x="40.1" y="0">’</tspan><tspan class="cls-4" x="40.46" y="0" xml:space="preserve"> ,</tspan><tspan class="cls-10" x="41.72" y="0"> </tspan><tspan class="cls-17" x="42.1" y="0">‘</tspan><tspan x="42.35" y="0">.widget . pos</tspan><tspan class="cls-18" x="58.18" y="0">t</tspan><tspan class="cls-19" x="59.16" y="0">-</tspan><tspan x="60.13" y="0">d</tspan><tspan class="cls-20" x="61.83" y="0">at</tspan><tspan class="cls-21" x="64.23" y="0">e</tspan><tspan class="cls-9" x="65.66" y="0">’</tspan><tspan x="66.03" y="0" xml:space="preserve"> ,</tspan><tspan class="cls-10" x="67.28" y="0"> </tspan><tspan class="cls-17" x="67.67" y="0">‘</tspan><tspan x="67.92" y="0">.widget .rss d</tspan><tspan class="cls-20" x="84.25" y="0">a</tspan><tspan class="cls-5" x="85.69" y="0">t</tspan><tspan class="cls-22" x="86.66" y="0">e</tspan><tspan class="cls-23" x="88.09" y="0">’</tspan><tspan class="cls-24" x="88.45" y="0" xml:space="preserve"> , .e</tspan><tspan class="cls-20" x="92.47" y="0">n</tspan><tspan x="94.12" y="0">t</tspan><tspan class="cls-25" x="95.12" y="0">r</tspan><tspan class="cls-14" x="96.17" y="0">y</tspan><tspan x="97.57" y="0">-head-inpu</tspan><tspan class="cls-8" x="111.45" y="0">t</tspan><tspan class="cls-9" x="112.5" y="0">’</tspan></text><text class="cls-1" transform="translate(13.1 88.13)">.<tspan class="cls-2" x="0.62" y="0">t</tspan><tspan x="1.6" y="0">oggl</tspan><tspan class="cls-3" x="7.3" y="0">e</tspan><tspan class="cls-4" x="8.89" y="0">-</tspan><tspan class="cls-5" x="9.81" y="0">t</tspan><tspan class="cls-6" x="10.79" y="0">e</tspan><tspan class="cls-7" x="12.28" y="0">x</tspan><tspan class="cls-8" x="13.71" y="0">t</tspan><tspan class="cls-9" x="14.77" y="0">’</tspan><tspan x="15.13" y="0" xml:space="preserve"> ,</tspan><tspan class="cls-10" x="16.39" y="0"> </tspan><tspan class="cls-11" x="16.77" y="0">‘</tspan><tspan x="17.41" y="0">widget . pos</tspan><tspan class="cls-12" x="32.62" y="0">t</tspan><tspan class="cls-13" x="33.59" y="0">-</tspan><tspan x="34.57" y="0">d</tspan><tspan class="cls-14" x="36.26" y="0">a</tspan><tspan class="cls-5" x="37.69" y="0">t</tspan><tspan class="cls-15" x="38.67" y="0">e</tspan><tspan class="cls-16" x="40.1" y="0">’</tspan><tspan class="cls-4" x="40.46" y="0" xml:space="preserve"> ,</tspan><tspan class="cls-10" x="41.72" y="0"> </tspan><tspan class="cls-17" x="42.1" y="0">‘</tspan><tspan x="42.35" y="0">.widget . pos</tspan><tspan class="cls-18" x="58.18" y="0">t</tspan><tspan class="cls-19" x="59.16" y="0">-</tspan><tspan x="60.13" y="0">d</tspan><tspan class="cls-20" x="61.83" y="0">at</tspan><tspan class="cls-21" x="64.23" y="0">e</tspan><tspan class="cls-9" x="65.66" y="0">’</tspan><tspan x="66.03" y="0" xml:space="preserve"> ,</tspan><tspan class="cls-10" x="67.28" y="0"> </tspan><tspan class="cls-17" x="67.67" y="0">‘</tspan><tspan x="67.92" y="0">.widget .rss d</tspan><tspan class="cls-20" x="84.25" y="0">a</tspan><tspan class="cls-5" x="85.69" y="0">t</tspan><tspan class="cls-22" x="86.66" y="0">e</tspan><tspan class="cls-23" x="88.09" y="0">’</tspan><tspan class="cls-24" x="88.45" y="0" xml:space="preserve"> , .e</tspan><tspan class="cls-20" x="92.47" y="0">n</tspan><tspan x="94.12" y="0">t</tspan><tspan class="cls-25" x="95.12" y="0">r</tspan><tspan class="cls-14" x="96.17" y="0">y</tspan><tspan x="97.57" y="0">-head-</tspan><tspan class="cls-28" x="105.72" y="0">r</tspan><tspan x="106.67" y="0">ea</tspan></text><text class="cls-1" transform="translate(13.1 93.9)">.<tspan class="cls-2" x="0.62" y="0">t</tspan><tspan x="1.6" y="0">oggl</tspan><tspan class="cls-3" x="7.3" y="0">e</tspan><tspan class="cls-4" x="8.89" y="0">-</tspan><tspan class="cls-5" x="9.81" y="0">t</tspan><tspan class="cls-6" x="10.79" y="0">e</tspan><tspan class="cls-7" x="12.28" y="0">x</tspan><tspan class="cls-8" x="13.71" y="0">t</tspan><tspan class="cls-9" x="14.77" y="0">’</tspan><tspan x="15.13" y="0" xml:space="preserve"> ,</tspan><tspan class="cls-10" x="16.39" y="0"> </tspan><tspan class="cls-11" x="16.77" y="0">‘</tspan><tspan x="17.41" y="0">widget . pos</tspan><tspan class="cls-12" x="32.62" y="0">t</tspan><tspan class="cls-13" x="33.59" y="0">-</tspan><tspan x="34.57" y="0">d</tspan><tspan class="cls-14" x="36.26" y="0">a</tspan><tspan class="cls-5" x="37.69" y="0">t</tspan><tspan class="cls-15" x="38.67" y="0">e</tspan><tspan class="cls-16" x="40.1" y="0">’</tspan><tspan class="cls-4" x="40.46" y="0" xml:space="preserve"> ,</tspan><tspan class="cls-10" x="41.72" y="0"> </tspan><tspan class="cls-17" x="42.1" y="0">‘</tspan><tspan x="42.35" y="0">.widget . pos</tspan><tspan class="cls-18" x="58.18" y="0">t</tspan><tspan class="cls-19" x="59.16" y="0">-</tspan><tspan x="60.13" y="0">d</tspan><tspan class="cls-20" x="61.83" y="0">at</tspan><tspan class="cls-21" x="64.23" y="0">e</tspan><tspan class="cls-9" x="65.66" y="0">’</tspan><tspan x="66.03" y="0" xml:space="preserve"> ,</tspan><tspan class="cls-10" x="67.28" y="0"> </tspan><tspan class="cls-17" x="67.67" y="0">‘</tspan><tspan x="67.92" y="0">.widget .rss d</tspan><tspan class="cls-20" x="84.25" y="0">a</tspan><tspan class="cls-5" x="85.69" y="0">t</tspan><tspan class="cls-22" x="86.66" y="0">e</tspan><tspan class="cls-23" x="88.09" y="0">’</tspan><tspan class="cls-24" x="88.45" y="0" xml:space="preserve"> , .e</tspan><tspan class="cls-20" x="92.47" y="0">n</tspan><tspan x="94.12" y="0">t</tspan><tspan class="cls-25" x="95.12" y="0">r</tspan><tspan class="cls-14" x="96.17" y="0">y</tspan><tspan x="97.57" y="0">-he</tspan><tspan class="cls-29" x="101.66" y="0">a</tspan><tspan x="103.08" y="0">w</tspan><tspan class="cls-30" x="105.29" y="0">r</tspan><tspan x="106.26" y="0">appe</tspan><tspan class="cls-31" x="112.62" y="0">r</tspan><tspan class="cls-23" x="113.69" y="0">’</tspan></text><text class="cls-1" transform="translate(26.1 99.67)"><tspan class="cls-32">‘</tspan><tspan class="cls-33" x="0.64" y="0">back</tspan><tspan class="cls-2" x="6.54" y="0">g</tspan><tspan class="cls-34" x="8.2" y="0">r</tspan><tspan x="9.15" y="0">ound </tspan><tspan class="cls-35" x="16.45" y="0">c</tspan><tspan x="17.77" y="0">olo</tspan><tspan class="cls-31" x="21.77" y="0">r</tspan><tspan class="cls-16" x="22.84" y="0">’</tspan><tspan class="cls-4" x="23.21" y="0"> </tspan><tspan class="cls-36" x="23.84" y="0">=&gt;</tspan><tspan class="cls-4" x="27.42" y="0" xml:space="preserve"> a</tspan><tspan class="cls-11" x="29.5" y="0">r</tspan><tspan class="cls-12" x="30.49" y="0">r</tspan><tspan class="cls-37" x="31.46" y="0">a</tspan><tspan x="32.88" y="0">y(</tspan><tspan class="cls-38" x="35.15" y="0"> </tspan><tspan class="cls-39" x="35.53" y="0">‘</tspan><tspan x="35.78" y="0">.heade</tspan><tspan class="cls-30" x="44.21" y="0">r</tspan><tspan x="45.18" y="0">-</tspan><tspan class="cls-40" x="46.1" y="0">f</tspan><tspan x="46.93" y="0">oo</tspan><tspan class="cls-35" x="50.23" y="0">t</tspan><tspan x="51.2" y="0">e</tspan><tspan class="cls-30" x="52.71" y="0">r</tspan><tspan class="cls-41" x="53.67" y="0">-</tspan><tspan class="cls-35" x="54.64" y="0">g</tspan><tspan class="cls-28" x="56.29" y="0">r</tspan><tspan class="cls-42" x="57.25" y="0">oup table captio</tspan><tspan class="cls-43" x="77.72" y="0">n</tspan><tspan class="cls-9" x="79.29" y="0">’</tspan><tspan x="79.65" y="0" xml:space="preserve"> ,</tspan><tspan class="cls-10" x="80.91" y="0"> </tspan><tspan class="cls-44" x="81.29" y="0">‘</tspan><tspan class="cls-42" x="81.93" y="0">bod</tspan><tspan class="cls-45" x="86.98" y="0">y</tspan><tspan x="88.46" y="0">:not</tspan></text><text class="cls-1" transform="translate(13.1 105.43)">(.<tspan class="cls-46" x="1.47" y="0">o</tspan><tspan class="cls-28" x="3.1" y="0">v</tspan><tspan class="cls-4" x="4.51" y="0">e</tspan><tspan class="cls-47" x="6.02" y="0">r</tspan><tspan x="7.01" y="0">l</tspan><tspan class="cls-37" x="7.72" y="0">a</tspan><tspan class="cls-14" x="9.14" y="0">y</tspan><tspan x="10.54" y="0">-header) .heade</tspan><tspan class="cls-18" x="30.17" y="0">r</tspan><tspan x="31.13" y="0">-inner .</tspan><tspan class="cls-34" x="39.83" y="0">y</tspan><tspan x="41.21" y="0">oggl</tspan><tspan class="cls-3" x="46.92" y="0">e</tspan><tspan class="cls-18" x="48.51" y="0">-</tspan><tspan x="49.41" y="0">w</tspan><tspan class="cls-30" x="51.62" y="0">r</tspan><tspan class="cls-42" x="52.59" y="0">apper : : be</tspan><tspan class="cls-40" x="66.29" y="0">f</tspan><tspan x="67.13" y="0">o</tspan><tspan class="cls-28" x="68.77" y="0">r</tspan><tspan class="cls-21" x="69.73" y="0">e</tspan><tspan x="71.15" y="0">’) </tspan></text><text class="cls-48" transform="translate(13.1 111.2)"><tspan class="cls-34">r</tspan><tspan x="0.95" y="0">etu</tspan><tspan class="cls-47" x="5.1" y="0">r</tspan><tspan x="6.09" y="0">n</tspan><tspan class="cls-49" x="7.76" y="0"> </tspan><tspan class="cls-36" x="8.39" y="0">apply_fil</tspan><tspan class="cls-50" x="19.15" y="0">t</tspan><tspan class="cls-51" x="20.13" y="0">ers(</tspan><tspan class="cls-52" x="24.65" y="0"> </tspan><tspan class="cls-53" x="25.04" y="0">‘</tspan><tspan class="cls-54" x="25.67" y="0">t</tspan><tspan class="cls-55" x="26.69" y="0">w</tspan><tspan class="cls-56" x="28.87" y="0">e</tspan><tspan class="cls-57" x="30.37" y="0">n</tspan><tspan class="cls-54" x="32.03" y="0">t</tspan><tspan class="cls-56" x="33.05" y="0">y</tspan><tspan class="cls-54" x="34.46" y="0">t</tspan><tspan class="cls-58" x="35.48" y="0">w</tspan><tspan class="cls-56" x="37.66" y="0">e</tspan><tspan class="cls-59" x="39.16" y="0">n</tspan><tspan class="cls-60" x="40.81" y="0">t</tspan><tspan class="cls-56" x="41.83" y="0">y_get_eleeme</tspan><tspan class="cls-59" x="59.64" y="0">n</tspan><tspan class="cls-61" x="61.3" y="0">ts_a</tspan><tspan class="cls-62" x="66.42" y="0">r</tspan><tspan class="cls-63" x="67.41" y="0">r</tspan><tspan class="cls-64" x="68.38" y="0">a</tspan><tspan class="cls-65" x="69.8" y="0">y</tspan><tspan class="cls-66" x="71.31" y="0">’</tspan><tspan class="cls-67" x="71.67" y="0" xml:space="preserve"> , </tspan><tspan class="cls-36" x="73.56" y="0">$eleme</tspan><tspan class="cls-68" x="82.82" y="0">n</tspan><tspan class="cls-36" x="84.47" y="0">ts )</tspan></text><text class="cls-69" transform="translate(4 53.54)">746</text><text class="cls-69" transform="translate(4 59.3)">747</text><text class="cls-69" transform="translate(4 65.07)">748</text><text class="cls-69" transform="translate(4 70.83)">749</text><text class="cls-69" transform="translate(4 88.13)">752</text><text class="cls-69" transform="translate(4 76.6)">750</text><text class="cls-69" transform="translate(4 82.37)">751</text><text class="cls-69" transform="translate(4 93.9)">753</text><text class="cls-69" transform="translate(4 105.43)">755</text><text class="cls-69" transform="translate(4 111.2)">756</text><text class="cls-69" transform="translate(4 99.67)">754</text><text class="cls-1" transform="translate(13.1 29)">.<tspan class="cls-2" x="0.62" y="0">t</tspan><tspan x="1.6" y="0">oggl</tspan><tspan class="cls-3" x="7.3" y="0">e</tspan><tspan class="cls-4" x="8.89" y="0">-</tspan><tspan class="cls-5" x="9.81" y="0">t</tspan><tspan class="cls-6" x="10.79" y="0">e</tspan><tspan class="cls-7" x="12.28" y="0">x</tspan><tspan class="cls-8" x="13.71" y="0">t</tspan><tspan class="cls-9" x="14.77" y="0">’</tspan><tspan x="15.13" y="0" xml:space="preserve"> ,</tspan><tspan class="cls-10" x="16.39" y="0"> </tspan><tspan class="cls-11" x="16.77" y="0">‘</tspan><tspan x="17.41" y="0">widget . pos</tspan><tspan class="cls-12" x="32.62" y="0">t</tspan><tspan class="cls-13" x="33.59" y="0">-</tspan><tspan x="34.57" y="0">d</tspan><tspan class="cls-14" x="36.26" y="0">a</tspan><tspan class="cls-5" x="37.69" y="0">t</tspan><tspan class="cls-15" x="38.67" y="0">e</tspan><tspan class="cls-16" x="40.1" y="0">’</tspan><tspan class="cls-4" x="40.46" y="0" xml:space="preserve"> ,</tspan><tspan class="cls-10" x="41.72" y="0"> </tspan><tspan class="cls-17" x="42.1" y="0">‘</tspan><tspan x="42.35" y="0">.widget . pos</tspan><tspan class="cls-18" x="58.18" y="0">t</tspan><tspan class="cls-19" x="59.16" y="0">-</tspan><tspan x="60.13" y="0">d</tspan><tspan class="cls-20" x="61.83" y="0">at</tspan><tspan class="cls-21" x="64.23" y="0">e</tspan><tspan class="cls-9" x="65.66" y="0">’</tspan><tspan x="66.03" y="0" xml:space="preserve"> ,</tspan><tspan class="cls-10" x="67.28" y="0"> </tspan><tspan class="cls-17" x="67.67" y="0">‘</tspan><tspan x="67.92" y="0">.widget .rss d</tspan><tspan class="cls-20" x="84.25" y="0">a</tspan><tspan class="cls-5" x="85.69" y="0">t</tspan><tspan class="cls-22" x="86.66" y="0">e</tspan><tspan class="cls-23" x="88.09" y="0">’</tspan><tspan class="cls-24" x="88.45" y="0" xml:space="preserve"> , .e</tspan><tspan class="cls-20" x="92.47" y="0">n</tspan><tspan x="94.12" y="0">t</tspan><tspan class="cls-25" x="95.12" y="0">r</tspan><tspan class="cls-14" x="96.17" y="0">y</tspan><tspan x="97.57" y="0">-head-se</tspan><tspan class="cls-8" x="108.41" y="0">t</tspan><tspan class="cls-9" x="109.47" y="0">’</tspan><tspan x="109.83" y="0"> </tspan><tspan class="cls-36" x="110.47" y="0">,</tspan></text><text class="cls-1" transform="translate(13.1 36.12)">.<tspan class="cls-2" x="0.62" y="0">t</tspan><tspan x="1.6" y="0">oggl</tspan><tspan class="cls-3" x="7.3" y="0">e</tspan><tspan class="cls-4" x="8.89" y="0">-</tspan><tspan class="cls-5" x="9.81" y="0">t</tspan><tspan class="cls-6" x="10.79" y="0">e</tspan><tspan class="cls-7" x="12.28" y="0">x</tspan><tspan class="cls-8" x="13.71" y="0">t</tspan><tspan class="cls-9" x="14.77" y="0">’</tspan><tspan x="15.13" y="0" xml:space="preserve"> ,</tspan><tspan class="cls-10" x="16.39" y="0"> </tspan><tspan class="cls-11" x="16.77" y="0">‘</tspan><tspan x="17.41" y="0">widget . pos</tspan><tspan class="cls-12" x="32.62" y="0">t</tspan><tspan class="cls-13" x="33.59" y="0">-</tspan><tspan x="34.57" y="0">d</tspan><tspan class="cls-14" x="36.26" y="0">a</tspan><tspan class="cls-5" x="37.69" y="0">t</tspan><tspan class="cls-15" x="38.67" y="0">e</tspan><tspan class="cls-16" x="40.1" y="0">’</tspan><tspan class="cls-4" x="40.46" y="0" xml:space="preserve"> ,</tspan><tspan class="cls-10" x="41.72" y="0"> </tspan><tspan class="cls-17" x="42.1" y="0">‘</tspan><tspan x="42.35" y="0">.widget . pos</tspan><tspan class="cls-18" x="58.18" y="0">t</tspan><tspan class="cls-19" x="59.16" y="0">-</tspan><tspan x="60.13" y="0">d</tspan><tspan class="cls-20" x="61.83" y="0">at</tspan><tspan class="cls-21" x="64.23" y="0">e</tspan><tspan class="cls-9" x="65.66" y="0">’</tspan><tspan x="66.03" y="0" xml:space="preserve"> ,</tspan><tspan class="cls-10" x="67.28" y="0"> </tspan><tspan class="cls-17" x="67.67" y="0">‘</tspan><tspan x="67.92" y="0">.widget .rss d</tspan><tspan class="cls-20" x="84.25" y="0">a</tspan><tspan class="cls-5" x="85.69" y="0">t</tspan><tspan class="cls-22" x="86.66" y="0">e</tspan><tspan class="cls-23" x="88.09" y="0">’</tspan><tspan class="cls-24" x="88.45" y="0" xml:space="preserve"> , .e</tspan><tspan class="cls-20" x="92.47" y="0">n</tspan><tspan x="94.12" y="0">t</tspan><tspan class="cls-25" x="95.12" y="0">r</tspan><tspan class="cls-14" x="96.17" y="0">y</tspan><tspan x="97.57" y="0">-head-a</tspan><tspan class="cls-28" x="107.17" y="0">r</tspan><tspan x="108.12" y="0">ea</tspan></text><text class="cls-1" transform="translate(13.1 43.24)">.<tspan class="cls-2" x="0.62" y="0">t</tspan><tspan x="1.6" y="0">oggl</tspan><tspan class="cls-3" x="7.3" y="0">e</tspan><tspan class="cls-4" x="8.89" y="0">-</tspan><tspan class="cls-5" x="9.81" y="0">t</tspan><tspan class="cls-6" x="10.79" y="0">e</tspan><tspan class="cls-7" x="12.28" y="0">x</tspan><tspan class="cls-8" x="13.71" y="0">t</tspan><tspan class="cls-9" x="14.77" y="0">’</tspan><tspan x="15.13" y="0" xml:space="preserve"> ,</tspan><tspan class="cls-10" x="16.39" y="0"> </tspan><tspan class="cls-11" x="16.77" y="0">‘</tspan><tspan x="17.41" y="0">widget . pos</tspan><tspan class="cls-12" x="32.62" y="0">t</tspan><tspan class="cls-13" x="33.59" y="0">-</tspan><tspan x="34.57" y="0">d</tspan><tspan class="cls-14" x="36.26" y="0">a</tspan><tspan class="cls-5" x="37.69" y="0">t</tspan><tspan class="cls-15" x="38.67" y="0">e</tspan><tspan class="cls-16" x="40.1" y="0">’</tspan><tspan class="cls-4" x="40.46" y="0" xml:space="preserve"> ,</tspan><tspan class="cls-10" x="41.72" y="0"> </tspan><tspan class="cls-17" x="42.1" y="0">‘</tspan><tspan x="42.35" y="0">.widget . pos</tspan><tspan class="cls-18" x="58.18" y="0">t</tspan><tspan class="cls-19" x="59.16" y="0">-</tspan><tspan x="60.13" y="0">d</tspan><tspan class="cls-20" x="61.83" y="0">at</tspan><tspan class="cls-21" x="64.23" y="0">e</tspan><tspan class="cls-9" x="65.66" y="0">’</tspan><tspan x="66.03" y="0" xml:space="preserve"> ,</tspan><tspan class="cls-10" x="67.28" y="0"> </tspan><tspan class="cls-17" x="67.67" y="0">‘</tspan><tspan x="67.92" y="0">.widget .rss d</tspan><tspan class="cls-20" x="84.25" y="0">a</tspan><tspan class="cls-5" x="85.69" y="0">t</tspan><tspan class="cls-22" x="86.66" y="0">e</tspan><tspan class="cls-23" x="88.09" y="0">’</tspan><tspan class="cls-24" x="88.45" y="0" xml:space="preserve"> , .e</tspan><tspan class="cls-20" x="92.47" y="0">n</tspan><tspan x="94.12" y="0">t</tspan><tspan class="cls-25" x="95.12" y="0">r</tspan><tspan class="cls-14" x="96.17" y="0">y</tspan><tspan x="97.57" y="0">-head</tspan><tspan class="cls-70" x="104.8" y="0">-</tspan><tspan x="105.77" y="0">er</tspan></text><path class="cls-71" d="M77.64,118.2h-27a23.76,23.76,0,0,0,3.22-5.58c1-3.09,1.15-11.75,1.15-11.75H74.12s-.27,9.63.79,12.6A37.24,37.24,0,0,0,77.64,118.2Z"/><polygon class="cls-72" points="54.96 100.87 74.09 103.43 74.12 100.87 54.96 100.87"/><rect class="cls-73" x="11.1" y="25.08" width="107.3" height="75.79" rx="4.96" ry="4.96"/><path class="cls-74" d="M11.1,86H118.4v9.92c0,5-5,5-5,5H16.06a4.55,4.55,0,0,1-5-5Z"/><circle class="cls-75" cx="64.16" cy="93.74" r="3.43"/><path class="cls-76" d="M70.48,58.26c0,4-2.08,7.39-4.81,8l-1-6.87-1,6.87c-2.74-.64-4.82-4-4.82-8a9.88,9.88,0,0,1,1.91-6,4.62,4.62,0,0,0,7.73,0A9.88,9.88,0,0,1,70.48,58.26Z"/><ellipse class="cls-77" cx="64.71" cy="61.09" rx="3.76" ry="4.66"/><ellipse class="cls-77" cx="64.71" cy="60.13" rx="3.76" ry="4.66"/><ellipse class="cls-77" cx="64.71" cy="59.09" rx="3.76" ry="4.55"/><ellipse class="cls-77" cx="64.71" cy="58.74" rx="3.76" ry="3.88"/><ellipse class="cls-77" cx="64.71" cy="58.2" rx="3.76" ry="3.35"/><ellipse class="cls-76" cx="64.71" cy="51.56" rx="3.14" ry="2.24"/><ellipse class="cls-76" cx="64.57" cy="49.24" rx="1.38" ry="1.2"/><line class="cls-78" x1="59.72" y1="44.39" x2="63.59" y2="48.46"/><circle class="cls-78" cx="59.1" cy="43.79" r="0.79"/><line class="cls-78" x1="69.38" y1="44.39" x2="65.51" y2="48.46"/><circle class="cls-78" cx="69.99" cy="43.79" r="0.79"/><circle class="cls-78" cx="57.47" cy="47.24" r="0.79"/><line class="cls-78" x1="61.66" y1="51.04" x2="58.31" y2="50.44"/><line class="cls-78" x1="57.59" y1="48.04" x2="58.31" y2="50.44"/><circle class="cls-78" cx="72.01" cy="47.32" r="0.79"/><line class="cls-78" x1="67.82" y1="51.12" x2="71.17" y2="50.52"/><line class="cls-78" x1="71.89" y1="48.11" x2="71.17" y2="50.52"/><circle class="cls-78" cx="52.39" cy="56.26" r="0.79"/><line class="cls-78" x1="58.93" y1="58.74" x2="55.61" y2="58.74"/><line class="cls-78" x1="52.93" y1="56.99" x2="55.61" y2="58.77"/><circle class="cls-78" cx="77.02" cy="56.19" r="0.79"/><line class="cls-78" x1="70.48" y1="58.67" x2="73.8" y2="58.67"/><line class="cls-78" x1="76.49" y1="56.93" x2="73.8" y2="58.71"/><circle class="cls-78" cx="56.68" cy="69.81" r="0.79"/><line class="cls-78" x1="60.37" y1="63.64" x2="58.93" y2="64.79"/><line class="cls-78" x1="58.93" y1="68.27" x2="58.93" y2="64.79"/><line class="cls-78" x1="57.47" y1="69.38" x2="58.93" y2="68.27"/><circle class="cls-78" cx="72.61" cy="69.81" r="0.79"/><line class="cls-78" x1="68.92" y1="63.64" x2="70.36" y2="64.79"/><line class="cls-78" x1="70.36" y1="68.27" x2="70.36" y2="64.79"/><line class="cls-78" x1="71.82" y1="69.38" x2="70.36" y2="68.27"/><path class="cls-79" d="M85.38,55.86a20.78,20.78,0,0,1-6,14.68,21.16,21.16,0,0,1-2,1.73,20.85,20.85,0,1,1,8-16.41Z"/><path class="cls-80" d="M115.34,113.41h0a6.52,6.52,0,0,1-9.18-.46l-24-31.11c-2.39-2.66-2.4-2.55.25-5h0c2.66-2.39,2.55-2.4,5,.25l28.5,27.09A6.51,6.51,0,0,1,115.34,113.41Z"/><rect class="cls-80" x="80.12" y="69.48" width="3" height="11.83" rx="1.5" ry="1.5" transform="translate(-29.23 67.68) rotate(-38.75)"/><path class="cls-81" d="M74.72,39.21,68,51.4l-1.77,3.19L66,55.1l-.15.27-.16.29-.33.59-.58,1.06-1.92,3.48-.24.44-.15.28-.18.33-.1.18-.85,1.52L60.51,65l-.23.42-2.1,3.82-.61,1.09-1.91,3.47a20.1,20.1,0,0,1-9.33-17.15c0-11,8.54-20,19.07-20A18.31,18.31,0,0,1,74.72,39.21Z"/><text class="cls-82" transform="translate(17.33 8.33)"><tspan class="cls-83">‘</tspan><tspan class="cls-56" x="0.52" y="0">se</tspan><tspan class="cls-84" x="3.21" y="0">c</tspan><tspan class="cls-56" x="4.54" y="0">onda</tspan><tspan class="cls-85" x="10.99" y="0">r</tspan><tspan class="cls-65" x="12.04" y="0">y</tspan><tspan class="cls-86" x="13.55" y="0">’</tspan><tspan class="cls-49" x="13.91" y="0"> </tspan><tspan class="cls-36" x="14.55" y="0">=&gt; a</tspan><tspan class="cls-87" x="20.2" y="0">r</tspan><tspan class="cls-88" x="21.2" y="0">r</tspan><tspan class="cls-89" x="22.16" y="0">a</tspan><tspan class="cls-36" x="23.59" y="0">y(</tspan><tspan x="25.85" y="0">m ipsum</tspan></text><text class="cls-69" transform="translate(4 8.33)">740</text><text class="cls-69" transform="translate(4 13.83)">741</text><text class="cls-69" transform="translate(4 19.33)">742</text><text class="cls-69" transform="translate(4 29)">743</text><text class="cls-69" transform="translate(4 36.12)">744</text><text class="cls-69" transform="translate(4 43.24)">745</text><text class="cls-1" transform="translate(22 13.83)"><tspan class="cls-90">‘</tspan><tspan class="cls-35" x="0.43" y="0">c</tspan><tspan x="1.75" y="0">olo</tspan><tspan class="cls-31" x="5.75" y="0">r</tspan><tspan class="cls-9" x="6.82" y="0">’</tspan><tspan x="7.19" y="0"> </tspan><tspan class="cls-36" x="7.82" y="0">=&gt; a</tspan><tspan class="cls-91" x="13.48" y="0">r</tspan><tspan class="cls-92" x="14.47" y="0">r</tspan><tspan class="cls-89" x="15.44" y="0">a</tspan><tspan class="cls-36" x="16.86" y="0">y(</tspan><tspan class="cls-10" x="19.13" y="0"> </tspan><tspan class="cls-17" x="19.51" y="0">‘</tspan><tspan x="19.76" y="0">. si</tspan><tspan class="cls-2" x="22.91" y="0">t</tspan><tspan x="23.88" y="0">e desc</tspan><tspan class="cls-47" x="31.75" y="0">r</tspan><tspan x="32.74" y="0">iptio</tspan><tspan class="cls-27" x="38.49" y="0">n</tspan><tspan class="cls-16" x="40.06" y="0">’</tspan><tspan x="40.42" y="0"> </tspan><tspan class="cls-36" x="41.06" y="0">,</tspan><tspan class="cls-4" x="41.68" y="0" xml:space="preserve"> body : not (.</tspan><tspan class="cls-93" x="57.08" y="0">o</tspan><tspan class="cls-28" x="58.71" y="0">v</tspan><tspan x="60.12" y="0">e</tspan><tspan class="cls-47" x="61.62" y="0">r</tspan><tspan x="62.62" y="0">l</tspan><tspan class="cls-29" x="63.32" y="0">a</tspan><tspan class="cls-20" x="64.75" y="0">y</tspan><tspan x="66.15" y="0">-header) . </tspan><tspan class="cls-5" x="78.6" y="0">t</tspan><tspan x="79.58" y="0">oggl</tspan><tspan class="cls-3" x="85.29" y="0">e</tspan><tspan x="86.87" y="0">-inner</tspan></text><text class="cls-1" transform="translate(13.1 19.33)">.<tspan class="cls-2" x="0.62" y="0">t</tspan><tspan x="1.6" y="0">oggl</tspan><tspan class="cls-3" x="7.3" y="0">e</tspan><tspan class="cls-4" x="8.89" y="0">-</tspan><tspan class="cls-5" x="9.81" y="0">t</tspan><tspan class="cls-6" x="10.79" y="0">e</tspan><tspan class="cls-7" x="12.28" y="0">x</tspan><tspan class="cls-8" x="13.71" y="0">t</tspan><tspan class="cls-9" x="14.77" y="0">’</tspan><tspan x="15.13" y="0"> </tspan><tspan class="cls-36" x="15.76" y="0">,</tspan><tspan class="cls-10" x="16.39" y="0"> </tspan><tspan class="cls-11" x="16.77" y="0">‘</tspan><tspan x="17.41" y="0">widget . pos</tspan><tspan class="cls-12" x="32.62" y="0">t</tspan><tspan class="cls-13" x="33.59" y="0">-</tspan><tspan x="34.57" y="0">d</tspan><tspan class="cls-14" x="36.26" y="0">a</tspan><tspan class="cls-5" x="37.69" y="0">t</tspan><tspan class="cls-15" x="38.67" y="0">e</tspan><tspan class="cls-16" x="40.1" y="0">’</tspan><tspan class="cls-4" x="40.46" y="0"> </tspan><tspan class="cls-36" x="41.1" y="0">,</tspan><tspan class="cls-10" x="41.72" y="0"> </tspan><tspan class="cls-17" x="42.1" y="0">‘</tspan><tspan x="42.35" y="0">.widget . pos</tspan><tspan class="cls-18" x="58.18" y="0">t</tspan><tspan class="cls-19" x="59.16" y="0">-</tspan><tspan x="60.13" y="0">d</tspan><tspan class="cls-20" x="61.83" y="0">at</tspan><tspan class="cls-21" x="64.23" y="0">e</tspan><tspan class="cls-9" x="65.66" y="0">’</tspan><tspan x="66.03" y="0"> </tspan><tspan class="cls-36" x="66.66" y="0">,</tspan><tspan class="cls-10" x="67.28" y="0"> </tspan><tspan class="cls-17" x="67.67" y="0">‘</tspan><tspan x="67.92" y="0">.widget .rss d</tspan><tspan class="cls-20" x="84.25" y="0">a</tspan><tspan class="cls-5" x="85.69" y="0">t</tspan><tspan class="cls-22" x="86.66" y="0">e</tspan><tspan class="cls-23" x="88.09" y="0">’</tspan><tspan class="cls-24" x="88.45" y="0"> </tspan><tspan class="cls-94" x="89.09" y="0">,</tspan><tspan class="cls-24" x="89.71" y="0" xml:space="preserve"> .e</tspan><tspan class="cls-20" x="92.47" y="0">n</tspan><tspan x="94.12" y="0">t</tspan><tspan class="cls-25" x="95.12" y="0">r</tspan><tspan class="cls-14" x="96.17" y="0">y</tspan><tspan x="97.57" y="0">-header</tspan></text><text class="cls-69" transform="translate(1.33 118.33)"><tspan class="cls-6">A</tspan><tspan class="cls-37" x="1.83" y="0">r</tspan><tspan x="2.78" y="0">gume</tspan><tspan class="cls-95" x="10.12" y="0">n</tspan><tspan x="11.77" y="0">ts</tspan></text><text class="cls-69" transform="translate(5 125)">1.<tspan class="cls-10" x="2.16" y="0"> </tspan><tspan class="cls-96" x="2.55" y="0">“</tspan><tspan class="cls-56" x="3.51" y="0">sy</tspan><tspan class="cls-57" x="6.11" y="0">n</tspan><tspan class="cls-56" x="7.76" y="0">tax e</tspan><tspan class="cls-97" x="13.73" y="0">r</tspan><tspan class="cls-55" x="14.72" y="0">r</tspan><tspan class="cls-56" x="15.67" y="0">o</tspan><tspan class="cls-98" x="17.32" y="0">r</tspan><tspan class="cls-56" x="18.14" y="0">, un</tspan><tspan class="cls-99" x="22.72" y="0">e</tspan><tspan class="cls-56" x="24.21" y="0">xpe</tspan><tspan class="cls-100" x="28.81" y="0">c</tspan><tspan class="cls-101" x="30.19" y="0">t</tspan><tspan class="cls-56" x="31.17" y="0">ed</tspan><tspan class="cls-52" x="34.36" y="0"> </tspan><tspan class="cls-56" x="34.75" y="0">‘}</tspan><tspan class="cls-86" x="36.22" y="0">’</tspan><tspan class="cls-56" x="36.59" y="0" xml:space="preserve"> , </tspan><tspan class="cls-99" x="38.48" y="0">e</tspan><tspan class="cls-56" x="39.97" y="0">xpe</tspan><tspan class="cls-102" x="44.57" y="0">c</tspan><tspan class="cls-56" x="45.96" y="0">ting</tspan><tspan class="cls-103" x="50.99" y="0"> </tspan><tspan class="cls-56" x="51.38" y="0">‘;</tspan><tspan class="cls-86" x="52.62" y="0">’</tspan><tspan class="cls-49" x="52.98" y="0"> </tspan><tspan class="cls-104" x="53.62" y="0">”</tspan></text></svg>